<svg width="890" height="596" viewBox="0 0 890 596" fill="none" xmlns="http://www.w3.org/2000/svg">
<g clip-path="url(#clip0_181_1015)">
<g clip-path="url(#clip1_181_1015)">
<path d="M387.957 438.674C311.994 481.449 354.77 586.913 379.845 591.338C399.158 594.746 462.649 592.792 493.421 591.338L731.634 415.074L592.245 395.899C549.47 395.899 448.728 404.454 387.957 438.674Z" fill="white"/>
<path d="M493.421 591.338C492.322 591.393 494.611 591.281 493.421 591.338ZM493.421 591.338C462.649 592.792 399.158 594.746 379.845 591.338C354.77 586.913 311.994 481.449 387.957 438.674C448.728 404.454 549.47 395.899 592.245 395.899L731.634 415.074L493.421 591.338Z" stroke="black" stroke-width="2.91102"/>
<path d="M408.606 453.152C461.116 443.122 503.744 473.965 518.494 490.64C520.958 487.195 523.622 483.789 526.498 480.44C521.964 460.527 433.681 439.14 408.606 453.152Z" fill="#000001"/>
<path d="M488.096 593.52C489.96 593.439 491.739 593.358 493.42 593.278L687.986 449.312C679.415 446.413 657.323 437.494 637.529 425.009C503.233 440.923 481.951 543.981 488.096 593.52Z" fill="#0E1729"/>
<path d="M710.245 593.277C806.857 562.302 731.632 422.176 731.632 417.014L695.494 412.042C511.413 423.405 484.076 537.6 493.418 593.277L524.484 849.191H604.537L611.419 593.277H710.245Z" fill="white" stroke="black" stroke-width="2.91102"/>
<path d="M592.245 540.178C604.045 551.978 609.946 580.495 611.421 593.278H622.483C619.533 578.774 609.355 547.848 592.245 540.178Z" fill="#000001"/>
<rect x="94.5" y="593" width="796" height="3" fill="black"/>
<path d="M607.214 146.088C603.33 141.143 593.23 125.958 583.907 104.77C586.026 102.297 590.051 94.8104 589.204 84.6398C578.186 82.9447 571.509 59.2134 569.548 47.5596C584.179 39.4435 571.712 17.7929 576.491 16.8366C581.788 15.7766 595.561 21.0738 595.561 34.8464C595.561 48.619 619.157 42.118 625.225 39.0841C640.056 31.6681 634.76 49.6796 628.403 66.63C625.013 72.5628 636.878 83.9341 643.235 88.8781C644.929 105.829 629.815 131.962 622.046 142.909C623.106 174.692 623.318 238.258 615.69 238.258C610.605 228.088 607.921 172.573 607.214 146.088Z" fill="white" stroke="black" stroke-width="1.94068"/>
<path d="M597.677 49.6725C595.911 51.4383 593.439 56.4529 597.677 62.3858" stroke="#241715" stroke-width="0.970341"/>
<path d="M606.152 65.5718C605.446 69.4564 602.338 75.3186 595.558 67.6907" stroke="#241715" stroke-width="0.970341"/>
<path d="M629.46 52.8538C630.872 48.9692 632.638 41.4119 628.4 42.2594" stroke="#241715" stroke-width="0.970341"/>
<path d="M588.072 96.2916C589.006 93.0569 589.575 89.1066 589.202 84.6383C595.073 87.817 605.092 88.8765 626.281 74.0435C627.127 85.0616 601.161 93.4664 588.072 96.2916Z" fill="black"/>
<path d="M642.174 16.8356C649.59 34.846 632.639 59.213 628.401 66.629C634.758 49.6786 638.995 31.6671 625.223 39.0832C619.25 42.2994 595.559 48.6181 595.559 34.8454C595.559 21.0728 581.786 15.7756 576.489 16.8356C571.71 17.7919 584.177 39.4426 569.547 47.5587C567.96 48.4386 566.056 49.1594 563.776 49.6775C569.073 42.2615 566.954 43.3209 562.716 25.3105C558.479 7.30016 577.549 3.06296 595.559 0.944096C613.569 -1.17477 634.758 -1.17477 642.174 16.8356Z" fill="black"/>
<path d="M741.76 131.256C728.199 113.457 670.424 95.5883 643.232 88.8785C644.927 105.829 629.813 131.962 622.044 142.91C623.104 174.693 623.315 238.259 615.688 238.259C610.602 228.088 607.918 172.574 607.212 146.088C603.327 141.144 593.228 125.959 583.905 104.77C581.786 111.127 524.576 154.563 515.041 168.336C505.506 182.109 502.328 314.538 502.328 326.192C502.328 337.845 498.09 417.303 533.052 417.303C561.021 417.303 675.369 421.188 733.284 422.6C741.76 332.901 755.32 149.054 741.76 131.256Z" fill="black"/>
<path d="M502.331 326.185C560.247 314.178 676.078 300.971 676.078 344.196C676.078 387.42 622.4 411.849 595.561 418.659M676.078 98.3068C669.015 101.518 654.042 116.629 650.652 151.379C646.414 194.815 632.811 209.647 621.791 209.647M610.977 211.766C601.954 216.71 582.212 220.454 575.432 195.875C566.957 165.151 549.274 148.2 529.511 153.497M707.861 110.061C705.742 109.165 671.841 132.309 668.662 185.28C665.484 238.252 631.582 337.839 561.659 284.867C535.172 258.381 509.651 241.784 505.365 243.549M583.908 418.339C593.442 409.163 609.97 387.844 599.799 375.979C589.628 364.113 533.997 380.216 507.453 389.751M746.848 158.795C723.964 172.92 681.799 217.911 696.208 284.867C708.921 323.007 732.153 319.122 742.18 312.413M738.347 364.325C724.653 364.505 698.538 376.254 703.624 421.805" stroke="white" stroke-width="0.970341"/>
<path d="M615.688 417.293V239.308" stroke="#027269" stroke-width="0.970341"/>
<path d="M616.324 415.56L611.117 376.847C599.277 378.995 574.619 381.076 555.571 382.881C535.63 384.771 530.605 395.241 543.99 398.585C536.989 397.711 529.15 407.364 540.322 411.686C532.127 414.597 548.336 417.845 556.282 417.861C551.734 418.548 543.849 419.815 544.921 424.634C545.993 429.452 592.969 420.592 616.324 415.56Z" fill="white"/>
<path d="M616.324 415.561L611.117 376.848C608.363 377.348 604.915 377.844 601.005 378.334L589.16 420.952C599.112 419.142 608.909 417.159 616.324 415.561Z" fill="black"/>
<path d="M556.606 418.146L573.08 413.509" stroke="black" stroke-width="0.970341"/>
<path d="M544.096 407.801L572.976 404.295" stroke="black" stroke-width="0.970341"/>
<path d="M543.991 398.584L573.488 393.482" stroke="black" stroke-width="0.970341"/>
<path d="M773.192 381.565C775.755 340.991 778.554 136.522 732.786 125.5C679.882 112.759 680.576 307.755 703.543 352.24L595.516 363.222L605.652 430.623C658.173 426.955 768.949 448.703 773.192 381.565Z" fill="black"/>
<path d="M732.785 125.499C679.882 112.759 680.575 307.754 703.543 352.24L595.515 363.222" stroke="white" stroke-width="0.970341"/>
<path d="M754.822 154.883C738.475 156.661 702.145 166.099 693.233 188.221M764.993 190.481C750.261 196.925 715.771 218.617 711.42 240.885C707.07 263.152 753.146 255.634 771.774 251.505M772.904 290.493C757.42 297.722 703.144 302.52 690.973 285.973M773.468 359.993C757.611 350.37 711.96 331.161 700.014 338.522M657.071 356.603C650.29 371.294 660.909 425.315 690.973 431.189" stroke="white" stroke-width="0.970341"/>
<path d="M309.824 279.458H491.76C494.947 279.458 497.811 281.407 498.981 284.372L553.015 421.342C554.185 424.307 557.048 426.256 560.236 426.256H701.751C704.354 426.256 706.464 428.366 706.464 430.969C706.464 433.573 704.354 435.683 701.751 435.683H365.618C362.435 435.683 359.575 433.74 358.402 430.782L302.607 290.082C300.587 284.986 304.342 279.458 309.824 279.458Z" fill="white" stroke="black" stroke-width="2.91102"/>
<path d="M498.151 282.129L558.002 426.256H553.96C550.826 426.256 547.999 424.371 546.794 421.477L490.15 285.456C488.962 282.603 491.059 279.458 494.15 279.458C495.901 279.458 497.48 280.512 498.151 282.129Z" fill="black"/>
<path d="M358.402 430.782L302.607 290.082C300.587 284.986 304.342 279.458 309.824 279.458H323.852C325.007 279.458 326.143 279.716 327.192 280.199C332.158 282.486 340.454 286.082 354.231 293.043C400.322 316.331 406.144 365.818 396.441 390.077C388.574 409.743 492.553 430.071 533.405 435.683H365.618C362.435 435.683 359.575 433.74 358.402 430.782Z" fill="black"/>
<ellipse cx="11.5736" cy="13.3097" rx="11.5736" ry="13.3097" transform="matrix(-0.936312 0.351169 0.351169 0.936312 427.362 327.975)" fill="black"/>
</g>
</g>
<defs>
<clipPath id="clip0_181_1015">
<rect width="889" height="596" fill="white" transform="translate(0.5)"/>
</clipPath>
<clipPath id="clip1_181_1015">
<rect width="889" height="596" fill="white" transform="translate(0.5)"/>
</clipPath>
</defs>
</svg>
